<svg width="149" height="53" viewBox="0 0 149 53" fill="none" xmlns="http://www.w3.org/2000/svg">
<path d="M147.748 19.058C148.087 22.2964 146.482 25.6605 143.112 28.9911C139.748 32.3173 134.682 35.5481 128.268 38.4968C115.446 44.392 97.3413 49.1121 76.9974 51.2418C56.6535 53.3715 37.9639 52.5031 24.1986 49.3912C17.3134 47.8347 11.6884 45.7231 7.70757 43.1658C3.72157 40.6052 1.45402 37.6466 1.11501 34.4082C0.776 31.1698 2.38167 27.8058 5.75096 24.4752C9.11592 21.1489 14.1816 17.9182 20.5952 14.9695C33.4175 9.07429 51.5221 4.35416 71.866 2.22447C92.21 0.0947889 110.9 0.963147 124.665 4.07503C131.55 5.63156 137.175 7.74316 141.156 10.3005C145.142 12.861 147.409 15.8196 147.748 19.058Z" stroke="url(#paint0_linear_2_16)"/>
<defs>
<linearGradient id="paint0_linear_2_16" x1="6.5" y1="42.5" x2="92.5" y2="22.5" gradientUnits="userSpaceOnUse">
<stop stop-color="#DADADA"/>
<stop offset="1" stop-color="#DADADA" stop-opacity="0"/>
</linearGradient>
</defs>
</svg>
